<?xml version="1.0" encoding="utf-8"?>
<!-- Generator: Adobe Illustrator 26.0.2, SVG Export Plug-In . SVG Version: 6.00 Build 0)  -->
<svg version="1.1" id="Layer_1" xmlns="http://www.w3.org/2000/svg" xmlns:xlink="http://www.w3.org/1999/xlink" x="0px" y="0px"
	 viewBox="0 0 300 300" style="enable-background:new 0 0 300 300;" xml:space="preserve">
<path d="M-178.5,155.3V63.9h-3v91.4l-85.2-78.6l-2,2.2l87.2,80.5v106.9h3v-79.9h45.1v36.1h1v-36.1h5.9v-3h-5.9v-36.1h-1v36.1h-45.1
	v-24l87.2-80.5l-2-2.2L-178.5,155.3z M-267,63.8c0-0.8-0.2-1.5-0.7-2.1s-1.3-1.2-2.4-1.8c1.8-0.9,2.6-2,2.6-3.5c0-1-0.4-1.9-1.2-2.5
	s-1.9-0.9-3.2-0.9c-1.3,0-2.4,0.3-3.2,0.9s-1.2,1.4-1.2,2.5c0,0.7,0.2,1.4,0.6,2s1,1.1,1.9,1.7c-1,0.5-1.7,1.1-2.2,1.7
	s-0.7,1.3-0.7,2.1c0,1.2,0.4,2.2,1.3,2.8s2.1,1,3.6,1c1.5,0,2.6-0.4,3.5-1.1S-267,65-267,63.8z M-274,56.6c0-0.6,0.2-1,0.6-1.3
	s0.9-0.5,1.6-0.5c0.7,0,1.2,0.2,1.6,0.5s0.6,0.8,0.6,1.3c0,0.5-0.2,1-0.5,1.3s-0.9,0.7-1.7,1.1c-0.7-0.3-1.1-0.6-1.4-0.8
	s-0.5-0.5-0.6-0.7S-274,56.9-274,56.6z M-269.9,65.3c-0.5,0.4-1.1,0.6-2,0.6c-0.8,0-1.5-0.2-1.9-0.6s-0.7-0.9-0.7-1.6
	c0-0.6,0.2-1.1,0.6-1.6s1-0.9,1.9-1.2l0.3,0.1c0.9,0.4,1.5,0.8,2,1.2s0.6,0.9,0.6,1.4C-269.2,64.4-269.4,65-269.9,65.3z M-82.8,59.6
	c-0.7-0.8-1.7-1.2-3-1.2c-0.7,0-1.4,0.1-2,0.4s-1,0.7-1.3,1.2h-0.1c0.1-1.8,0.5-3.1,1.2-3.9s1.9-1.2,3.4-1.2c0.7,0,1.2,0.1,1.7,0.2
	v-1.9c-0.5-0.1-1.1-0.2-1.8-0.2c-4.6,0-6.8,2.8-6.8,8.4c0,1.3,0.2,2.5,0.6,3.4s1,1.7,1.7,2.1s1.6,0.7,2.7,0.7c1.4,0,2.6-0.4,3.4-1.3
	s1.3-2.1,1.3-3.5C-81.7,61.5-82,60.4-82.8,59.6z M-84.6,65c-0.4,0.5-1,0.8-1.8,0.8c-0.8,0-1.4-0.3-1.9-0.9s-0.7-1.4-0.7-2.3
	c0-0.4,0.1-0.8,0.4-1.1s0.6-0.7,1-0.9s0.9-0.3,1.4-0.3c0.8,0,1.4,0.2,1.8,0.7s0.6,1.1,0.6,1.9C-83.9,63.8-84.2,64.5-84.6,65z
	 M-113.6,181.8c-0.5,0-0.9,0-1.2,0.1c-0.3,0.1-0.6,0.1-0.8,0.1l0.3-3.5h5.4v-2h-7.4l-0.5,7l1,0.6c0.3-0.1,0.7-0.1,1.2-0.2
	c0.4-0.1,0.8-0.1,1.1-0.1c2.2,0,3.3,0.9,3.3,2.6c0,0.9-0.3,1.6-0.8,2c-0.5,0.5-1.3,0.7-2.4,0.7c-0.6,0-1.2-0.1-1.9-0.2
	c-0.7-0.2-1.3-0.4-1.8-0.7v2.1c0.9,0.5,2.2,0.8,3.8,0.8c1.8,0,3.1-0.4,4.1-1.3c1-0.9,1.4-2,1.4-3.6c0-1.3-0.4-2.4-1.3-3.1
	S-112.2,181.8-113.6,181.8z M-183.6,50.8h2.5l5.6-12.7v-1.6h-9.9v2h7.4L-183.6,50.8z"/>
<path d="M152.3,155.3V63.9h-3v91.4L64.1,76.7l-2,2.2l87.2,80.5v24h-45.1v-36.1h-1v36.1h-5.9v3h5.9v36.1h1v-36.1h45.1v79.9h3V159.4
	l87.2-80.5l-2-2.2L152.3,155.3z M87.2,176.4H85l-6.5,9.4v1.8H85v3.1h2.2v-3.1h1.9v-1.9h-1.9V176.4z M85,182.1v3.6h-4.4l3.5-5.2
	c0.4-0.6,0.7-1.1,0.9-1.6h0.1C85,179.8,85,180.9,85,182.1z M62.9,63.4c0-0.9-0.3-1.7-0.9-2.3s-1.4-0.9-2.6-1.1V60
	c1-0.2,1.7-0.6,2.2-1.2s0.8-1.4,0.8-2.3c0-1.1-0.4-1.9-1.2-2.6S59.3,53,57.9,53c-1.7,0-3.3,0.5-4.6,1.4l1.1,1.6
	c0.7-0.4,1.3-0.7,1.8-0.9s1-0.2,1.6-0.2c0.8,0,1.4,0.2,1.8,0.5s0.6,0.8,0.6,1.4c0,1.6-1.1,2.4-3.4,2.4h-1.3v1.9h1.2
	c1.3,0,2.2,0.2,2.9,0.5s0.9,0.9,0.9,1.7c0,0.9-0.3,1.5-0.8,1.9s-1.4,0.6-2.5,0.6c-0.6,0-1.3-0.1-2-0.2s-1.3-0.4-1.9-0.7v2
	c1.1,0.5,2.4,0.8,4,0.8c1.8,0,3.2-0.4,4.1-1.1S62.9,64.8,62.9,63.4z M154.8,48.8H148v-0.1l2.5-2.4c1.1-1,1.9-1.9,2.4-2.5
	s0.8-1.2,1.1-1.8s0.3-1.2,0.3-1.8c0-1.2-0.4-2.1-1.2-2.8s-1.9-1-3.2-1c-0.8,0-1.6,0.1-2.4,0.4s-1.5,0.8-2.3,1.4l1.2,1.5
	c0.7-0.5,1.3-0.9,1.8-1.1s1-0.3,1.6-0.3c0.7,0,1.2,0.2,1.6,0.6s0.6,0.9,0.6,1.5c0,0.5-0.1,0.9-0.2,1.3s-0.4,0.8-0.8,1.3
	s-1.1,1.3-2.2,2.4l-3.7,3.7v1.7h9.7V48.8z M243.5,53.2l-4.2,3.3l1.2,1.5c1.2-1,2-1.6,2.2-1.8s0.4-0.4,0.6-0.5
	c-0.1,0.6-0.1,1.5-0.1,2.6v9.2h2.3V53.2H243.5z"/>
</svg>
