<?xml version="1.0" encoding="utf-8"?>
<!-- Generator: Adobe Illustrator 26.0.1, SVG Export Plug-In . SVG Version: 6.00 Build 0)  -->
<svg version="1.1" id="Layer_1" xmlns="http://www.w3.org/2000/svg" xmlns:xlink="http://www.w3.org/1999/xlink" x="0px" y="0px"
	 viewBox="0 0 274.1 192.7" style="enable-background:new 0 0 274.1 192.7;" xml:space="preserve">
<style type="text/css">
	.st0{fill:#FF1C3D;}
	.st1{fill:#DA343A;}
	.st2{fill:#FFFFFF;}
</style>
<path class="st0" d="M137,0C61.4,0,0,43.1,0,96.4s61.4,96.4,137,96.4s137-43.1,137-96.4S212.7,0,137,0z"/>
<path class="st1" d="M705.1-46.7c-75.7,0-137,43.1-137,96.4s61.4,96.4,137,96.4s137-43.1,137-96.4S780.8-46.7,705.1-46.7z
	 M651.3,90.6c-5.4,5.8-12.7,8.8-21.6,8.8c-4.7,0-9.2-0.9-13.6-2.6c-4.5-1.7-8.4-3.9-11.7-6.7c-3.3-2.8-5.6-5.8-7-9.1
	c-0.5-1.2-0.8-2.3-0.9-3.5c-0.3-2.2,0.2-4.7,1.3-7.4c0.8-1.9,2.5-3.8,5.1-5.8c1.8-1.4,4.4-0.7,5.6,1.3c0.9,1.5,1.9,2.8,3.2,4.1
	c2.3,2.3,5,4,7.8,5.3c2.8,1.3,5.3,1.9,7.5,1.9c7.4,0,11.3-2.1,11.6-6.3l-0.1-0.4c-0.2-1.5-1.4-2.9-3.6-4.2c-2.2-1.3-5.2-2.8-8.9-4.3
	c-3.4-1.4-6.9-3.1-10.5-4.9c-3.7-1.9-7.1-4.1-10.3-6.8c-5.8-4.9-9.1-10.8-10-17.8c-0.9-7.3,0.5-13.6,4.1-19.1
	c2.7-4,6.3-7.2,10.8-9.6c4.5-2.4,9.6-3.6,15.2-3.6c4.5,0,9.1,0.9,13.8,2.9c4.7,1.9,8.5,4.6,11.5,7.8c2.2,2.5,3.6,5.3,4,8.2
	c0.1,0.9,0.1,2.6-0.1,5.1c-0.1,1.9-1.8,4.4-4.9,7.4c-1.6,1.5-4.1,1.4-5.5-0.3c-0.8-1-1.7-1.9-2.6-2.8c-2-1.9-4.2-3.4-6.6-4.6
	c-2.4-1.2-4.8-1.8-7.3-1.8c-4.4,0-7.4,0.9-9.2,2.8c-1.3,1.3-1.9,3.1-1.6,5.2c0.3,2.5,1.9,4.7,4.7,6.6c2.9,1.9,6.6,3.9,11.1,5.8
	c4.2,1.8,8.4,3.9,12.6,6.3c8.2,4.9,12.8,11.1,13.7,18.8c0.2,1.4,0.2,2.8,0.2,4.4C659,78.9,656.3,85.3,651.3,90.6z M725.8,26.9
	c-1.5,0.9-3.5,0.6-4.7-0.6c-0.3-0.3-0.7-0.7-1.1-1c-1.3-1.1-2.9-1.9-5-2.7c-2.1-0.7-4.7-1.1-7.9-1.1c-3,0-5.9,0.8-8.6,2.4
	c-2.8,1.6-5.1,4.2-7.1,7.8c-1.9,3.7-3.1,8.6-3.6,14.7c-0.2,2.6-0.2,5.2,0.2,7.9c0.1,0.8,0.3,2.3,0.7,4.4c0.4,2.1,1.3,4.6,2.7,7.5
	s3.1,5.2,5.2,6.9c2.1,1.8,4.6,2.6,7.3,2.6c2.6,0,4.8-0.3,6.5-0.9c1.7-0.6,3-1.3,4-2.1c1-0.8,1.6-1.5,2-2.1l0.6-0.9
	c6,4.6,9.3,9.5,9.9,14.8c0,0.4,0.1,1.3,0.2,2.8c0.1,1.4-0.6,3.3-2.1,5.3c-1.4,2.1-3.7,3.8-6.8,5c-3.1,1.3-7,1.9-11.7,1.9
	c-5.8,0-11.1-1-15.7-2.9c-9-3.8-15.8-10.6-20.4-20.3c-2.6-5.7-4.4-11.9-5.3-18.8c-0.5-4.2-0.7-8.5-0.5-12.9
	c0.5-9.8,2.5-17.9,6.1-24.5c3.5-6.6,8.2-11.5,14-14.8c5.8-3.3,12.2-5,19.2-5c4.2,0,8.2,0.8,11.9,2.2c3.7,1.4,6.8,3.3,9.4,5.6
	c3.6,3.1,5.5,6.3,5.9,9.5C731.8,21.3,730,24.5,725.8,26.9z M815.1,11.9c-1.3,7.1-3.2,14.2-5.7,21.3c-2.5,7.1-5.2,14.2-8,21.3
	c-3.1,7.8-5.9,15.4-8.4,22.9c-2.1,6.3-3.7,12.6-4.6,18.7c-0.3,1.8-1.8,3.2-3.7,3.3c0,0,0,0,0,0h-1.9c-1.2,0-2.2,0-3.2-0.1h-1.2
	c-6.2,0-11-0.7-14.5-2c-4.4-1.7-6.8-4.9-7.4-9.5c-3.5-24.6-8.9-51.8-16.2-81.6c-0.5-1.9,0.6-3.9,2.4-4.5c0.8-0.3,1.7-0.5,2.6-0.7
	c2.2-0.6,4.4-0.8,6.8-0.8c0.3,0,0.7,0,1.4,0.1c0.5,0,1.1,0,1.8,0.1c1.7,0.1,3.7,0.9,5.9,2.4c2.2,1.5,3.5,4.1,4,7.6
	c2.1,15.6,4.4,31.2,7,46.7c0.7,4,6.4,4.4,7.5,0.4c1.1-4,2.3-8,3.5-11.9c2.5-8.3,4.7-16.1,6.7-23.6c1.7-6.5,2.8-12.4,3.5-17.8
	c0.2-1.6,1.3-3,2.9-3.3c1.7-0.4,3.4-0.6,5.1-0.6c0.9,0,2.5,0.1,4.7,0.4c2.2,0.3,4.4,1.4,6.5,3.4c1.5,1.3,2.3,2.9,2.6,4.9
	C815.3,9.7,815.3,10.7,815.1,11.9z"/>
<path class="st2" d="M75.9,41.8c-15.9,0-26.2,9.5-29.3,25.9c-2.2,11.9,0.6,20.4,12,32.4c8.9,9.4,11.2,14.9,9.6,23.5
	c-1.5,7.7-5.2,10.4-10.4,10.4c-5.2,0-8-2.7-6.6-10.1l1.3-7.1H37.1l-1.1,6c-3.1,16.7,3.1,26.2,19.2,26.2c16.1,0,26.5-9.5,29.7-26.5
	c2.4-12.9-0.3-21.3-11.7-33.3c-8.9-9.4-11.3-14.9-9.9-22.5c1.3-7.1,4.9-10,10.1-10c5.2,0,7.7,2.8,6.2,10.3l-1,5.4H94l0.8-4.3
	C97.9,51.3,91.8,41.8,75.9,41.8z M144.4,41.8c-15.8,0-25.9,9.5-28.9,25.6l-10.6,56c-3,16.1,3.5,25.6,19.3,25.6
	c15.8,0,25.9-9.5,28.9-25.6l2.8-14.7h-15.5l-3,15.9c-1.3,6.8-5.1,9.5-10,9.5c-4.9,0-7.7-2.7-6.4-9.5l11-58.2c1.3-6.8,5.1-9.7,10-9.7
	c4.9,0,7.7,2.8,6.4,9.7l-2.3,12.1h15.5l2.1-11C166.7,51.3,160.2,41.8,144.4,41.8z M223.9,43.3l-26,80.8h-0.3l4.5-80.8h-16.5
	l-3.9,104.2h21.7l35.4-104.2H223.9z"/>
</svg>
